<svg xmlns="http://www.w3.org/2000/svg" width="104.123" height="104.124" viewBox="0 0 104.123 104.124">
  <g id="Group_3397" data-name="Group 3397" transform="translate(-610 -8552.999)">
    <rect id="Rectangle_1477" data-name="Rectangle 1477" width="104.123" height="104.123" rx="5" transform="translate(610 8553)" fill="#7159c1"/>
    <g id="Group_3293" data-name="Group 3293" transform="translate(488.022 8652.869)">
      <g id="Group_1188" data-name="Group 1188" transform="translate(166.457 -99.87)">
        <g id="Group_1170" data-name="Group 1170" transform="translate(2.663 0)">
          <rect id="Rectangle_15" data-name="Rectangle 15" width="0.851" height="7.223" fill="#414556"/>
          <rect id="Rectangle_16" data-name="Rectangle 16" width="0.851" height="7.223" transform="translate(4.112)" fill="#414556"/>
          <rect id="Rectangle_17" data-name="Rectangle 17" width="0.851" height="7.223" transform="translate(8.225)" fill="#414556"/>
          <rect id="Rectangle_18" data-name="Rectangle 18" width="0.851" height="7.223" transform="translate(12.337)" fill="#414556"/>
        </g>
        <g id="Group_1182" data-name="Group 1182" transform="translate(0 6.089)">
          <g id="Group_1173" data-name="Group 1173">
            <g id="Group_1171" data-name="Group 1171" transform="translate(0 3.676)">
              <path id="Path_430" data-name="Path 430" d="M256.305,128.7a6.67,6.67,0,0,1-2.814,5.123,5.734,5.734,0,0,1-.6.38,6.532,6.532,0,0,1-2.707.826,8.353,8.353,0,0,1-.883.015,6.932,6.932,0,0,1-.71-.078,6.65,6.65,0,0,1-3.612-1.838,5.752,5.752,0,0,1-.482-.532,6.617,6.617,0,0,1-1.494-4,.219.219,0,0,1,.22-.22.21.21,0,0,1,.121.04l.011.007.05.049,1.618,1.622a4.618,4.618,0,0,0,.9.706,4.424,4.424,0,0,0,.645.327,4.743,4.743,0,0,0,2.733.273,4.991,4.991,0,0,0,.7-.192,4.05,4.05,0,0,0,.383-.159,4.21,4.21,0,0,0,.628-.348,4.845,4.845,0,0,0,.742-.606h0a4.768,4.768,0,0,0,0-6.738l-1.6-1.6a.751.751,0,0,1-.22-.532v-7.064a2.286,2.286,0,0,1,.031-.384,2.32,2.32,0,0,1,3.942-1.331,2.339,2.339,0,0,1,.657,1.331,2.389,2.389,0,0,1,.021.316v8.782a3.015,3.015,0,0,0,.543,1.732A6.629,6.629,0,0,1,256.305,128.7Z" transform="translate(-243 -111.756)" fill="#272a44"/>
              <rect id="Rectangle_19" data-name="Rectangle 19" width="4.651" height="2.306" transform="translate(6.934 5.807)" fill="#191c2d"/>
            </g>
            <path id="Path_431" data-name="Path 431" d="M255.253,117.915h-5.322a.831.831,0,0,1-.749-.472l-4.066-8.493a.831.831,0,0,1,.749-1.189h13.454a.831.831,0,0,1,.749,1.189L256,117.443A.831.831,0,0,1,255.253,117.915Z" transform="translate(-243.162 -107.761)" fill="#414556"/>
            <g id="Group_1172" data-name="Group 1172" transform="translate(4.107 5.687)">
              <path id="Path_432" data-name="Path 432" d="M247.463,113.942l1.913,3.994a.831.831,0,0,0,.749.472h1.028l-1.862-4.466Z" transform="translate(-247.463 -113.942)" fill="#fff"/>
              <path id="Path_433" data-name="Path 433" d="M249.482,113.942h-.032l1.862,4.466h1.913l-1.862-4.466Z" transform="translate(-247.621 -113.942)" fill="#fff"/>
              <path id="Path_434" data-name="Path 434" d="M251.561,113.942h-.032l1.862,4.466H255.3l-1.862-4.466Z" transform="translate(-247.788 -113.942)" fill="#fff"/>
              <path id="Path_435" data-name="Path 435" d="M255.52,113.942h-1.913l1.862,4.466h.468a.831.831,0,0,0,.749-.472l.267-.557Z" transform="translate(-247.954 -113.942)" fill="#fff"/>
              <path id="Path_436" data-name="Path 436" d="M258.142,115.243l-.543-1.3h-1.913l1.433,3.438Z" transform="translate(-248.12 -113.942)" fill="#fff"/>
              <path id="Path_437" data-name="Path 437" d="M258.931,113.942h-1.166l.543,1.3Z" transform="translate(-248.286 -113.942)" fill="#fff"/>
            </g>
          </g>
          <g id="Group_1177" data-name="Group 1177" transform="translate(1.494 22.615)">
            <g id="Group_1174" data-name="Group 1174" transform="translate(0 0.099)">
              <path id="Path_438" data-name="Path 438" d="M246.7,132.774l-1.589,2a5.758,5.758,0,0,1-.482-.532l1.426-1.8A4.425,4.425,0,0,0,246.7,132.774Z" transform="translate(-244.624 -132.447)" fill="#191c2d"/>
            </g>
            <g id="Group_1175" data-name="Group 1175" transform="translate(5.889)">
              <path id="Path_439" data-name="Path 439" d="M254.132,135.465a5.731,5.731,0,0,1-.6.38l-2.506-3.158a4.208,4.208,0,0,0,.628-.348Z" transform="translate(-251.024 -132.339)" fill="#191c2d"/>
            </g>
            <g id="Group_1176" data-name="Group 1176" transform="translate(4.094 0.699)">
              <path id="Path_440" data-name="Path 440" d="M249.783,133.1v3.647a6.937,6.937,0,0,1-.71-.078v-3.485A4.74,4.74,0,0,0,249.783,133.1Z" transform="translate(-249.073 -133.099)" fill="#191c2d"/>
            </g>
          </g>
          <g id="Group_1181" data-name="Group 1181" transform="translate(7.398 22.691)">
            <g id="Group_1180" data-name="Group 1180" transform="translate(0 0)">
              <path id="Path_443" data-name="Path 443" d="M249.041,151.828a.355.355,0,0,1-.355-.355v-18.7a.355.355,0,0,1,.71,0v18.7A.355.355,0,0,1,249.041,151.828Z" transform="translate(-248.686 -132.421)" fill="#fff"/>
            </g>
          </g>
        </g>
      </g>
      <path id="React_Native" data-name="React Native" d="M27.266,42.645c-3.91,3.749-7.768,6-10.875,5.893a5.371,5.371,0,0,1-2.785-.7c-2.733-1.554-3.749-5.626-2.839-11.36q.254-1.568.643-3.11a24.635,24.635,0,0,1-3-.965C3,30.375,0,27.482,0,24.268c0-3.16,3-6.053,8.411-8.142.964-.317,1.929-.644,3-.964-.269-1.073-.484-2.09-.643-3.11C9.8,6.32,10.821,2.3,13.605.693A5.383,5.383,0,0,1,16.391,0c3.105,0,6.962,2.25,10.82,6.054C31.121,2.249,35.031,0,38.087,0a5.394,5.394,0,0,1,2.782.7c2.787,1.608,3.8,5.68,2.893,11.519-.16,1.015-.374,2.036-.643,3.11a24.723,24.723,0,0,1,3,.965c5.413,2.03,8.415,4.923,8.415,8.141,0,3.16-3,6.053-8.411,8.142-.964.317-1.929.644-3,.964.269,1.073.484,2.089.643,3.11.965,5.732-.054,9.75-2.839,11.36a5.384,5.384,0,0,1-2.785.7C35.031,48.7,31.178,46.447,27.266,42.645ZM33.534,35.2a56.024,56.024,0,0,1-4.553,5.626c3.214,3.214,6.483,5.357,9.106,5.357a2.9,2.9,0,0,0,1.554-.375h0c1.821-1.019,2.412-4.287,1.66-8.841a27.428,27.428,0,0,0-.59-2.893A49.227,49.227,0,0,1,33.534,35.2ZM13.226,36.966h0c-.75,4.553-.162,7.822,1.66,8.841a3.028,3.028,0,0,0,1.554.375c2.624,0,5.892-2.2,9.106-5.357A49.487,49.487,0,0,1,20.994,35.2a68.832,68.832,0,0,1-7.181-1.125c-.209,1.019-.423,1.981-.584,2.891ZM27.261,39q1.581-1.725,3-3.589c-.964.054-1.983.054-3,.054s-2.035,0-3-.054q1.419,1.863,3,3.587Zm-4.874-23.2c-.911,1.4-1.821,2.785-2.625,4.178-.858,1.446-1.608,2.894-2.3,4.339q1.057,2.221,2.3,4.339,1.225,2.142,2.625,4.179a73.568,73.568,0,0,0,9.752,0c.911-1.4,1.821-2.785,2.625-4.179q1.247-2.118,2.3-4.339c-.7-1.445-1.445-2.893-2.3-4.339-.8-1.4-1.66-2.785-2.625-4.178q-2.435-.162-4.876-.162T22.39,15.8Zm-7.87,15.909q2.339.5,4.713.8c-.59-.855-1.073-1.713-1.608-2.623h0c-.536-.855-1.015-1.768-1.445-2.625C15.535,28.767,15,30.27,14.517,31.715Zm23.893-4.5c-.481.911-.963,1.82-1.445,2.625-.538.91-1.073,1.767-1.608,2.625,1.66-.215,3.214-.484,4.713-.8-.48-1.448-1.015-2.948-1.66-4.447Zm1.4-2.9a56.367,56.367,0,0,1,2.624,6.752c.964-.267,1.927-.59,2.785-.911,4.339-1.662,6.8-3.751,6.8-5.838,0-2.412-3.588-5.036-9.588-6.75a48.5,48.5,0,0,1-2.625,6.747ZM9.317,18.483c-4.339,1.66-6.8,3.749-6.8,5.838,0,2.412,3.588,5.036,9.588,6.751a51.214,51.214,0,0,1,2.624-6.748A56.324,56.324,0,0,1,12.1,17.573c-.965.267-1.927.589-2.785.91Zm6.854,3c.427-.91.908-1.769,1.446-2.679s1.072-1.765,1.607-2.625c-1.66.214-3.213.484-4.713.8a35.66,35.66,0,0,0,1.662,4.5Zm20.791-2.729,1.445,2.679h0c.642-1.5,1.18-3,1.66-4.5-1.5-.32-3.054-.59-4.713-.8.592.855,1.073,1.714,1.611,2.625ZM29.029,7.822a49.487,49.487,0,0,1,4.553,5.626,69,69,0,0,1,7.18,1.125c.214-1.015.43-1.983.59-2.893.75-4.608.109-7.822-1.66-8.84a3.027,3.027,0,0,0-1.552-.377h0c-2.626,0-5.894,2.2-9.108,5.357Zm-15.8,3.853a27.236,27.236,0,0,0,.59,2.893A49.211,49.211,0,0,1,21,13.446,55.725,55.725,0,0,1,25.55,7.821c-3.211-3.214-6.482-5.357-9.107-5.357a2.9,2.9,0,0,0-1.554.376h0C13.067,3.911,12.477,7.125,13.227,11.676Zm17.039,1.554c-.965-1.231-1.981-2.464-3-3.589-1.015,1.125-2.035,2.3-3,3.589.965-.054,1.984-.054,3-.054s2.034,0,3,.056ZM22.283,24.322A4.982,4.982,0,1,1,27.266,29.3a4.982,4.982,0,0,1-4.983-4.982Z" transform="translate(146.978 -61.253)" fill="#fff"/>
    </g>
  </g>
</svg>
